<?xml version="1.0" encoding="utf-8"?>
<!-- Generator: Adobe Illustrator 21.0.0, SVG Export Plug-In . SVG Version: 6.00 Build 0)  -->
<svg version="1.1" id="Layer_2" xmlns="http://www.w3.org/2000/svg" xmlns:xlink="http://www.w3.org/1999/xlink" x="0px" y="0px"
	 viewBox="0 0 1013.8 931.9" style="enable-background:new 0 0 1013.8 931.9;" xml:space="preserve">
<style type="text/css">
	.st0{fill:#353535;}
	.st1{fill:#141414;}
	.st2{fill:#4D4D4D;}
	.st3{fill:#212121;}
	.st4{fill:#1A1A1A;}
	.st5{fill:#FEDA6A;}
	.st6{stroke:#F2F2F2;stroke-miterlimit:10;}
	.st7{fill:#2D2D2D;}
	.st8{fill:url(#SVGID_1_);}
	.st9{fill:#333333;}
	.st10{fill:url(#SVGID_2_);}
</style>
<g>
	<polygon class="st0" points="260.2,325.4 136.2,244.3 191.9,118.9 259.2,153.8 270.5,165.6 328.1,198.7 304.2,263.2 	"/>
	<polygon class="st1" points="260.2,325.4 223.1,190.9 270.5,165.6 328.1,198.7 304.2,263.2 	"/>
	<polygon points="190.9,279 88.9,248.6 0,143.3 167.9,172.8 136.2,244.3 	"/>
	<polygon class="st2" points="506.9,804.9 398.8,739.9 328.1,560.9 281.1,505.9 264.6,424.1 278.3,400.7 260.2,325.4 304.2,263.2 
		328.1,198.7 506.9,150.9 	"/>
	<polygon class="st3" points="328.1,198.7 432.9,308.5 506.9,150.9 	"/>
	<polygon class="st0" points="426.9,439.9 432.9,560.9 424.9,577.9 385.8,604.3 	"/>
	<polygon class="st0" points="281.1,505.9 319.5,380.9 328.1,560.9 	"/>
	<polygon class="st3" points="426.9,439.9 506.9,560.9 432.9,560.9 	"/>
	<polygon class="st0" points="372.3,464.5 398.8,739.9 328.1,560.9 	"/>
	<polygon class="st1" points="328.1,198.7 414.7,410.4 432.9,308.5 	"/>
	<path class="st4" d="M47.5,461.9"/>
	<polygon class="st5" points="402.5,380.9 340.4,367.3 319.5,380.9 367.9,421.3 426.9,439.9 	"/>
	<polygon points="441.2,765.4 506.9,891 506.9,804.9 	"/>
	<polygon points="469,818.6 448.5,837.2 465.9,931.9 389,837.2 416.1,750.3 441.2,765.4 	"/>
	<polygon points="402.5,853.9 398.8,913.9 351.2,822.9 398.8,739.9 416.1,750.3 389,837.2 	"/>
	<polygon points="244.4,732.7 295.6,863.9 308,796.5 305.7,790.9 330.9,671.9 362.1,646.9 334.1,576.1 270.5,674.2 	"/>
	<polygon points="305.7,790.9 336.3,863.9 362.2,843.9 351.2,822.9 398.8,739.9 362.1,646.9 330.9,671.9 	"/>
	<polygon points="109,162.5 47.5,41.9 173.8,68 259.2,153.8 191.9,118.9 167.9,172.8 	"/>
	<polygon points="506.9,150.9 506.9,88.1 435.5,56.1 	"/>
	<polyline points="506.9,150.9 373.2,89.1 312.9,1.9 413.4,26.7 506.9,150.9 	"/>
	<polygon points="350.4,56.1 278.2,11.6 165.7,0 304.4,96.5 415.9,175.2 506.9,150.9 373.2,89.1 	"/>
	<path class="st6" d="M259.2,153.8"/>
	<polyline points="281.1,505.9 328.1,560.9 334.1,576.1 270.5,674.2 218.5,790.9 210.5,623.6 227.1,563.7 281.1,505.9 	"/>
	<polygon class="st3" points="432.9,308.5 506.9,426 426.9,439.9 414.7,410.4 	"/>
	<polygon class="st3" points="136.2,244.3 198.5,203 191.9,118.9 	"/>
	<polygon class="st7" points="424.9,577.9 449.3,601.8 474,607.3 506.9,657.9 424.9,642.7 385.8,604.3 	"/>
	<polygon class="st1" points="198.5,203 136.2,244.3 260.2,325.4 	"/>
	<polygon class="st3" points="319.5,380.9 347.3,404.1 328.1,560.9 	"/>
	<polygon class="st3" points="389,428 372.3,464.5 385.8,604.3 426.9,439.9 	"/>
	<polyline class="st3" points="260.2,325.4 319.5,380.9 281.1,505.9 264.6,424.1 278.3,400.7 260.2,325.4 	"/>
	<polygon points="241.9,325.4 115.8,394.7 101.9,390.6 101.9,516 145.5,486.3 278.3,400.7 260.2,325.4 	"/>
	<polygon points="242,52.4 191.9,41.9 133,59.5 173.8,68 259.2,153.8 270.5,165.6 304.2,263.2 328.1,198.7 415.9,175.2 	"/>
	<polygon points="284.4,204.5 190.9,279 88.9,248.6 70.9,258 37.2,256.7 69.9,325 241.9,325.4 260.2,325.4 304.2,263.2 	"/>
	<linearGradient id="SVGID_1_" gradientUnits="userSpaceOnUse" x1="260.1875" y1="325.3908" x2="260.1875" y2="325.3908">
		<stop  offset="0" style="stop-color:#8C8C8C"/>
		<stop  offset="0.3639" style="stop-color:#989A9D"/>
		<stop  offset="1" style="stop-color:#000000"/>
	</linearGradient>
	<path class="st8" d="M260.2,325.4"/>
	<polygon class="st3" points="259.2,153.8 191.9,118.9 223.1,190.9 270.5,165.6 	"/>
	<polygon points="281.1,505.9 264.6,424.1 278.3,400.7 145.5,486.3 143.5,520.2 136.2,748.4 210.5,623.6 227.1,563.7 	"/>
	<polygon class="st1" points="347.3,404.1 367.9,421.3 389,428 328.1,560.9 	"/>
	<polygon points="110,325.1 101.9,351.7 84,355.1 23.9,367.8 115.8,394.7 241.9,325.4 	"/>
	<polygon class="st9" points="328.1,198.7 304.2,263.2 260.2,325.4 319.5,380.9 340.4,367.3 402.5,380.9 	"/>
	<polygon class="st0" points="753.6,325.4 877.5,244.3 821.9,118.9 754.6,153.8 743.2,165.6 685.7,198.7 709.5,263.2 	"/>
	<polygon class="st1" points="753.6,325.4 790.7,190.9 743.2,165.6 685.7,198.7 709.5,263.2 	"/>
	<polygon points="822.9,279 924.8,248.6 1013.8,143.3 845.8,172.8 877.5,244.3 	"/>
	<polygon class="st2" points="506.9,804.9 615,739.9 685.7,560.9 732.7,505.9 749.2,424.1 735.5,400.7 753.6,325.4 709.5,263.2 
		685.7,198.7 506.9,150.9 	"/>
	<polygon points="580.9,560.9 506.9,582.9 432.9,560.9 424.9,577.9 449.3,601.8 474,607.3 506.9,657.9 539.8,607.3 564.4,601.8 
		588.9,577.9 	"/>
	<polygon class="st3" points="685.7,198.7 580.9,308.5 506.9,150.9 	"/>
	<polygon class="st0" points="586.9,439.9 580.9,560.9 588.9,577.9 628,604.3 	"/>
	<polygon class="st0" points="506.9,690.4 398.8,739.9 506.9,804.9 615,739.9 	"/>
	<polygon class="st0" points="506.9,426 426.9,439.9 506.9,560.9 586.9,439.9 	"/>
	<polygon class="st0" points="732.7,505.9 694.3,380.9 685.7,560.9 	"/>
	<polygon class="st3" points="586.9,439.9 506.9,560.9 580.9,560.9 	"/>
	<polygon class="st0" points="641.5,464.5 615,739.9 685.7,560.9 	"/>
	<polygon class="st1" points="685.7,198.7 599.1,410.4 580.9,308.5 	"/>
	<path class="st4" d="M966.3,461.9"/>
	<polygon class="st5" points="611.2,380.9 673.3,367.3 694.3,380.9 645.9,421.3 586.9,439.9 	"/>
	<polygon points="572.5,765.4 506.9,891 506.9,804.9 	"/>
	<polygon points="544.8,818.6 565.2,837.2 547.9,931.9 624.7,837.2 597.6,750.3 572.5,765.4 	"/>
	<polygon points="611.2,853.9 615,913.9 662.6,822.9 615,739.9 597.6,750.3 624.7,837.2 	"/>
	<polygon points="769.4,732.7 718.1,863.9 705.7,796.5 708.1,790.9 682.9,671.9 651.7,646.9 679.7,576.1 743.2,674.2 	"/>
	<polygon points="708.1,790.9 677.5,863.9 651.6,843.9 662.6,822.9 615,739.9 651.7,646.9 682.9,671.9 	"/>
	<polygon points="904.7,162.5 966.3,41.9 839.9,68 754.6,153.8 821.9,118.9 845.8,172.8 	"/>
	<polygon points="506.9,150.9 506.9,88.1 578.2,56.1 	"/>
	<polyline points="506.9,150.9 640.6,89.1 700.9,1.9 600.3,26.7 506.9,150.9 	"/>
	<polygon points="663.4,56.1 735.6,11.6 848.1,0 709.3,96.5 597.8,175.2 506.9,150.9 640.6,89.1 	"/>
	<path class="st6" d="M754.6,153.8"/>
	<polyline points="732.7,505.9 685.7,560.9 679.7,576.1 743.2,674.2 795.3,790.9 803.2,623.6 786.7,563.7 732.7,505.9 	"/>
	<polygon class="st3" points="580.9,308.5 506.9,426 586.9,439.9 599.1,410.4 	"/>
	<polygon class="st3" points="877.5,244.3 815.3,203 821.9,118.9 	"/>
	<polygon class="st9" points="506.9,560.9 432.9,560.9 506.9,582.9 580.9,560.9 	"/>
	<polygon class="st3" points="588.9,642.7 506.9,657.9 424.9,642.7 385.8,604.3 398.8,739.9 506.9,690.4 615,739.9 628,604.3 	"/>
	<polygon class="st7" points="588.9,577.9 564.4,601.8 539.8,607.3 506.9,657.9 588.9,642.7 628,604.3 	"/>
	<polygon class="st1" points="506.9,150.9 432.9,308.5 506.9,426 580.9,308.5 	"/>
	<polygon class="st1" points="815.3,203 877.5,244.3 753.6,325.4 	"/>
	<polygon class="st3" points="694.3,380.9 666.5,404.1 685.7,560.9 	"/>
	<polygon class="st3" points="624.7,428 641.5,464.5 628,604.3 586.9,439.9 	"/>
	<polyline class="st3" points="753.6,325.4 694.3,380.9 732.7,505.9 749.2,424.1 735.5,400.7 753.6,325.4 	"/>
	<polygon points="771.9,325.4 898,394.7 911.8,390.6 911.8,516 868.2,486.3 735.5,400.7 753.6,325.4 	"/>
	<polygon points="771.7,52.4 821.9,41.9 880.8,59.5 839.9,68 754.6,153.8 743.2,165.6 709.5,263.2 685.7,198.7 597.8,175.2 	"/>
	<polygon points="729.4,204.5 822.9,279 924.8,248.6 942.9,258 976.5,256.7 943.9,325 771.9,325.4 753.6,325.4 709.5,263.2 	"/>
	
		<linearGradient id="SVGID_2_" gradientUnits="userSpaceOnUse" x1="369.3061" y1="325.3908" x2="369.3061" y2="325.3908" gradientTransform="matrix(-1 0 0 1 1122.8813 0)">
		<stop  offset="0" style="stop-color:#8C8C8C"/>
		<stop  offset="0.3639" style="stop-color:#989A9D"/>
		<stop  offset="1" style="stop-color:#000000"/>
	</linearGradient>
	<path class="st10" d="M753.6,325.4"/>
	<polygon class="st3" points="754.6,153.8 821.9,118.9 790.7,190.9 743.2,165.6 	"/>
	<polygon points="732.7,505.9 749.2,424.1 735.5,400.7 868.2,486.3 870.2,520.2 877.5,748.4 803.2,623.6 786.7,563.7 	"/>
	<polygon class="st1" points="666.5,404.1 645.9,421.3 624.7,428 685.7,560.9 	"/>
	<polygon points="903.8,325.1 911.8,351.7 929.8,355.1 989.9,367.8 898,394.7 771.9,325.4 	"/>
	<polygon class="st9" points="685.7,198.7 709.5,263.2 753.6,325.4 694.3,380.9 673.3,367.3 611.2,380.9 	"/>
</g>
</svg>
