<svg height="64" viewBox="0 0 32 31.999998" width="64" xmlns="http://www.w3.org/2000/svg"><g transform="matrix(.21833354 0 0 .21833354 -2.1812604 -1.7070684)"><path d="m82.77 10a9.81 9.81 0 0 0 -3.77 1l-51 24.35a9.68 9.68 0 0 0 -5.27 6.56l-12.49 54.64a9.6 9.6 0 0 0 1.33 7.45q.26.4.55.77l35.27 43.85a9.77 9.77 0 0 0 7.61 3.59h56.56a9.77 9.77 0 0 0 7.62-3.63l35.25-43.86a9.6 9.6 0 0 0 1.88-8.18l-12.58-54.69a9.68 9.68 0 0 0 -5.27-6.56l-50.96-24.29a9.81 9.81 0 0 0 -4.73-1z" fill="#326ce5"/><path d="m83.28 28.62a3.23 3.23 0 0 0 -3 3.39v.08.78a25.44 25.44 0 0 0 .42 2.9 28.49 28.49 0 0 1 .3 5.54 3.33 3.33 0 0 1 -1 1.58l-.07 1.29a39.69 39.69 0 0 0 -5.51.85 39.23 39.23 0 0 0 -19.94 11.38l-1.1-.78a2.41 2.41 0 0 1 -1.81-.18 28.48 28.48 0 0 1 -4.11-3.71 25.41 25.41 0 0 0 -2-2.13c-.19-.16-.47-.38-.68-.54a3.63 3.63 0 0 0 -2.12-.8 2.94 2.94 0 0 0 -2.43 1.08 3.23 3.23 0 0 0 .75 4.5c.2.16.45.37.63.51a25.42 25.42 0 0 0 2.53 1.48 28.47 28.47 0 0 1 4.57 3.16 3.39 3.39 0 0 1 .61 1.76l1 .87a39.46 39.46 0 0 0 -6.22 27.51l-1.28.37a4.23 4.23 0 0 1 -1.31 1.32 28.48 28.48 0 0 1 -5.47.9 25.52 25.52 0 0 0 -2.93.23l-.81.19h-.09a3.06 3.06 0 1 0 1.36 5.94h.06l.83-.09a25.49 25.49 0 0 0 2.74-1 28.51 28.51 0 0 1 5.32-1.56 3.37 3.37 0 0 1 1.75.62l1.33-.23a39.69 39.69 0 0 0 17.59 22l-.56 1.17a3 3 0 0 1 .27 1.72 29.8 29.8 0 0 1 -2.76 5 25.55 25.55 0 0 0 -1.64 2.44c-.12.23-.27.58-.39.82a3.06 3.06 0 1 0 5.51 2.61c.12-.24.28-.55.38-.78a25.45 25.45 0 0 0 .88-2.8c.81-2 1.25-4.15 2.36-5.48a2.47 2.47 0 0 1 1.31-.64l.69-1.25a39.47 39.47 0 0 0 28.15.07l.61 1.17a2.41 2.41 0 0 1 1.56.94 28.46 28.46 0 0 1 2.09 5.13 25.51 25.51 0 0 0 .89 2.8c.1.23.26.54.38.78a3.06 3.06 0 1 0 5.51-2.61c-.12-.24-.28-.59-.4-.82a25.43 25.43 0 0 0 -1.64-2.43 28.5 28.5 0 0 1 -2.7-4.84 2.39 2.39 0 0 1 .31-1.83 10.48 10.48 0 0 1 -.51-1.23 39.69 39.69 0 0 0 17.51-22.08l1.3.23a2.41 2.41 0 0 1 1.71-.63 28.51 28.51 0 0 1 5.32 1.56 25.49 25.49 0 0 0 2.74 1.06c.22.06.54.11.79.17h.06a3.06 3.06 0 1 0 1.36-5.94c-.26-.06-.63-.16-.89-.21a25.52 25.52 0 0 0 -2.93-.23 28.47 28.47 0 0 1 -5.47-.9 3.42 3.42 0 0 1 -1.32-1.32l-1.23-.36a39.62 39.62 0 0 0 -6.35-27.45l1.08-1a2.41 2.41 0 0 1 .57-1.73 28.47 28.47 0 0 1 4.54-3.19 25.5 25.5 0 0 0 2.53-1.48c.2-.15.46-.37.67-.54a3.07 3.07 0 1 0 -3.8-4.77c-.21.16-.49.38-.68.54a25.52 25.52 0 0 0 -2 2.13 28.56 28.56 0 0 1 -4 3.77 3.4 3.4 0 0 1 -1.85.2l-1.16.83a40 40 0 0 0 -25.35-12.23c0-.41-.06-1.14-.07-1.36a2.41 2.41 0 0 1 -1-1.52 28.54 28.54 0 0 1 .35-5.53 25.44 25.44 0 0 0 .42-2.9c0-.25 0-.6 0-.87a3.23 3.23 0 0 0 -3-3.39zm-3.82 23.66-.91 16h-.07a2.69 2.69 0 0 1 -4.27 2.06l-13.12-9.3a31.42 31.42 0 0 1 15.13-8.24 32.14 32.14 0 0 1 3.24-.52zm7.64 0a31.68 31.68 0 0 1 18.27 8.81l-13 9.24a2.69 2.69 0 0 1 -4.37-2.07zm-30.78 14.78 12 10.71v.07a2.69 2.69 0 0 1 -1.06 4.62v.05l-15.4 4.43a31.41 31.41 0 0 1 4.46-19.88zm53.83 0a32 32 0 0 1 4.59 19.82l-15.42-4.44v-.06a2.69 2.69 0 0 1 -1.06-4.62l11.91-10.66zm-29.33 11.54h4.91l3 3.81-1.09 4.76-4.41 2.12-4.42-2.12-1.04-4.77zm15.73 13a2.68 2.68 0 0 1 .62 0l15.88 2.68a31.45 31.45 0 0 1 -12.71 16l-6.14-14.86a2.7 2.7 0 0 1 2.33-3.75zm-26.67.07a2.69 2.69 0 0 1 2.43 3.75v.06l-6.1 14.74a31.58 31.58 0 0 1 -12.63-15.83l15.74-2.67a2.72 2.72 0 0 1 .53 0zm13.3 6.46a2.71 2.71 0 0 1 2.46 1.41h.06l7.76 14a32.17 32.17 0 0 1 -3.1.87 31.54 31.54 0 0 1 -17.21-.89l7.74-14a2.69 2.69 0 0 1 2.29-1.35z" fill="#fff" stroke="#fff" stroke-width=".25"/></g></svg>