<svg enable-background="new -35.5 26 150 150" height="64" viewBox="-35.5 26 32 32" width="64" xmlns="http://www.w3.org/2000/svg"><g transform="matrix(.296012 0 0 .296012 -31.192474 12.12554)"><path d="m-7.6 101c0-8.6 0-17.2 0-25.8 0-1 .4-1.7 1.3-2.2 14.9-8.6 29.7-17.1 44.5-25.7.8-.5 1.7-.6 2.5-.1l44.7 25.8c.8.5 1.2 1.2 1.2 2.2v51.5c0 1-.4 1.7-1.2 2.2-12.8 7.4-25.6 14.8-38.4 22.2-2 1.2-4.1 2.4-6.1 3.5-.9.5-1.8.5-2.7 0-11.2-6.4-22.3-12.9-33.5-19.3-3.7-2.1-7.4-4.3-11.1-6.4-.8-.5-1.2-1.1-1.2-2.1 0-8.6 0-17.2 0-25.8z" fill="#009438"/><path d="m23.9 91.4v.4 29.7c0 3.4-2.7 6.4-6.3 6.3-2.2-.1-3.9-1-5.1-2.9-.6-.9-.8-1.9-.8-3 0-13.9 0-27.9 0-41.8 0-2.8 1.7-4.8 3.9-5.7s4.4-.7 6.6 0c2.1.6 3.7 1.9 5.1 3.5 4.3 5.2 8.7 10.4 13 15.6 4.5 5.4 9.1 10.8 13.6 16.3.1.1.2.3.4.5 0-.2 0-.4 0-.5 0-10 0-19.9 0-29.9 0-3.2 2.2-5.7 5.3-6 3.9-.5 6.5 2.3 6.9 5.2v.8 33.3 8.5c0 2.4-1.1 4.1-3.1 5.2-1.5.8-3.1 1-4.8.9-2.5-.2-4.7-1.1-6.6-2.8-1-.9-1.7-2-2.6-3-4.9-5.9-9.8-11.7-14.7-17.6-3.5-4.2-7.1-8.5-10.6-12.7 0-.1-.1-.2-.2-.3z" fill="#fefefe"/></g></svg>