<?xml version="1.0" encoding="utf-8"?>
<!-- Generator: Adobe Illustrator 21.0.0, SVG Export Plug-In . SVG Version: 6.00 Build 0)  -->
<svg version="1.1" id="new" xmlns="http://www.w3.org/2000/svg" xmlns:xlink="http://www.w3.org/1999/xlink" x="0px" y="0px"
	 viewBox="0 0 177.8 180" style="enable-background:new 0 0 177.8 180;" xml:space="preserve">
<style type="text/css">
	.st0{fill:#FFFFFF;}
</style>
<title>Mapbox_Logo_08</title>
<g>
	<g>
		<path class="st0" d="M88.9,1.1C39.8,1.1,0,40.9,0,90s39.8,88.9,88.9,88.9s88.9-39.8,88.9-88.9S138,1.1,88.9,1.1z M131.1,111.8
			c-30.4,30.4-84.7,20.7-84.7,20.7s-9.8-54.2,20.7-84.7C84,30.9,112,31.6,129.7,49.2S148,94.9,131.1,111.8L131.1,111.8z"/>
		<polygon class="st0" points="99.1,53.2 90.4,71.1 72.5,79.8 90.4,88.5 99.1,106.4 107.8,88.5 125.7,79.8 107.8,71.1 		"/>
	</g>
</g>
</svg>
