<?xml version="1.0" encoding="utf-8"?>
<!-- Generator: Adobe Illustrator 21.0.0, SVG Export Plug-In . SVG Version: 6.00 Build 0)  -->
<svg version="1.1" id="Layer_1" xmlns="http://www.w3.org/2000/svg" xmlns:xlink="http://www.w3.org/1999/xlink" x="0px" y="0px"
	 viewBox="0 0 120 123" style="enable-background:new 0 0 120 123;" xml:space="preserve">
<style type="text/css">
	.st0{fill:#FFFFFF;}
</style>
<g id="Layer_1_1_">
	<g>
		<path class="st0" d="M60,0C26.9,0,0,27.5,0,61.5c0,27.2,17.2,50.2,41,58.4c3,0.6,4.1-1.3,4.1-3c0-1.5-0.1-6.3-0.1-11.5
			c-16.7,3.7-20.2-7.3-20.2-7.3c-2.7-7.1-6.7-9-6.7-9c-5.4-3.8,0.4-3.7,0.4-3.7c6,0.4,9.2,6.3,9.2,6.3c5.4,9.4,14,6.7,17.5,5.1
			c0.5-4,2.1-6.7,3.8-8.2C35.7,87,21.7,81.8,21.7,58.2c0-6.7,2.3-12.2,6.2-16.5c-0.6-1.5-2.7-7.8,0.6-16.3c0,0,5-1.7,16.5,6.3
			c4.8-1.4,9.9-2,15-2.1c5.1,0,10.2,0.7,15,2.1c11.5-8,16.5-6.3,16.5-6.3c3.3,8.5,1.2,14.7,0.6,16.3c3.8,4.3,6.2,9.8,6.2,16.5
			c0,23.6-14,28.8-27.4,30.4c2.2,1.9,4.1,5.7,4.1,11.4c0,8.2-0.1,14.9-0.1,16.9c0,1.6,1.1,3.6,4.1,3c23.8-8.1,41-31.2,41-58.4
			C120,27.5,93.2,0,60,0z"/>
		<path class="st0" d="M22.8,88.3c-0.1,0.3-0.6,0.4-1,0.2c-0.4-0.2-0.7-0.6-0.5-0.9c0.1-0.3,0.6-0.4,1-0.2
			C22.7,87.6,22.9,88,22.8,88.3L22.8,88.3z"/>
		<path class="st0" d="M25.2,91.1c-0.3,0.3-0.8,0.1-1.2-0.3c-0.4-0.4-0.5-1-0.2-1.3s0.8-0.1,1.2,0.3C25.4,90.3,25.5,90.8,25.2,91.1
			L25.2,91.1z"/>
		<path class="st0" d="M27.6,94.6c-0.4,0.3-1,0-1.3-0.5c-0.4-0.5-0.4-1.2,0-1.5s1,0,1.3,0.5C27.9,93.7,27.9,94.4,27.6,94.6
			L27.6,94.6z"/>
		<path class="st0" d="M30.8,98.1c-0.3,0.4-1,0.3-1.5-0.2s-0.7-1.2-0.3-1.6c0.3-0.4,1-0.3,1.6,0.2C31,97,31.2,97.7,30.8,98.1
			L30.8,98.1z"/>
		<path class="st0" d="M35.3,100.1c-0.1,0.5-0.8,0.7-1.5,0.5s-1.1-0.8-1-1.3s0.8-0.7,1.5-0.5C35,99,35.4,99.6,35.3,100.1L35.3,100.1
			z"/>
		<path class="st0" d="M40.2,100.4c0,0.5-0.6,0.9-1.3,0.9s-1.3-0.4-1.3-0.9s0.6-0.9,1.3-0.9C39.6,99.5,40.2,99.9,40.2,100.4
			L40.2,100.4z"/>
		<path class="st0" d="M44.8,99.6c0.1,0.5-0.4,1-1.1,1.1c-0.7,0.1-1.3-0.2-1.4-0.7c-0.1-0.5,0.4-1,1.1-1.1
			C44,98.8,44.7,99.1,44.8,99.6L44.8,99.6z"/>
	</g>
</g>
</svg>
