<?xml version="1.0" encoding="utf-8"?>
<!-- Generator: Adobe Illustrator 21.0.0, SVG Export Plug-In . SVG Version: 6.00 Build 0)  -->
<svg version="1.1"
	 id="svg2" xmlns:cc="http://creativecommons.org/ns#" xmlns:dc="http://purl.org/dc/elements/1.1/" xmlns:rdf="http://www.w3.org/1999/02/22-rdf-syntax-ns#" xmlns:svg="http://www.w3.org/2000/svg"
	 xmlns="http://www.w3.org/2000/svg" xmlns:xlink="http://www.w3.org/1999/xlink" x="0px" y="0px" viewBox="0 0 192 192"
	 style="enable-background:new 0 0 192 192;" xml:space="preserve">
<style type="text/css">
	.st0{fill:#FFFFFF;}
</style>
<g id="g10" transform="matrix(1.3333333,0,0,-1.3333333,0,192)">
	<g id="g12" transform="scale(0.1)">
		<path id="path14" class="st0" d="M1227.1,212.9h-213.4v334.2c0,79.7-1.5,182.2-111,182.2c-111.1,0-128.2-86.8-128.2-176.5v-340
			H561v687.2h204.9v-93.9h2.8c28.5,54,98.2,111,202.1,111c216.3,0,256.2-142.3,256.2-327.4V212.9z M320.3,994.1
			c-68.5,0-123.9,55.5-123.9,123.9c0,68.3,55.4,123.8,123.9,123.8c68.3,0,123.8-55.5,123.8-123.8
			C444.1,1049.6,388.6,994.1,320.3,994.1z M427.1,212.9H213.5v687.2h213.6V212.9z M1333.4,1440H106.3C47.6,1440,0,1393.5,0,1336.2
			V103.9C0,46.6,47.6,0,106.3,0h1227.1c58.7,0,106.6,46.6,106.6,103.9v1232.3C1440,1393.5,1392.2,1440,1333.4,1440"/>
		<path id="path16" class="st0" d="M1512.7,244.2h-6.7v13.7h8.5c4.4,0,9.5-0.7,9.5-6.5C1524,244.7,1518.9,244.2,1512.7,244.2z
			 M1519.4,240.1c6.8,0.8,10.4,4.6,10.4,10.9c0,7.7-4.6,11.4-14.2,11.4h-15.4V222h5.8v17.6h7.2l0.2-0.2l11.1-17.4h6.2l-11.9,18
			L1519.4,240.1"/>
		<path id="path18" class="st0" d="M1513.4,208.9c-18.3,0-32.7,14.4-32.7,33.2c0,18.7,14.4,33.2,32.7,33.2
			c18.3,0,32.7-14.5,32.7-33.2C1546,223.4,1531.7,208.9,1513.4,208.9z M1513.4,280.4c-21.5,0-38.3-16.8-38.3-38.2
			c0-21.5,16.8-38.2,38.3-38.2c21.4,0,38.3,16.8,38.3,38.2C1551.6,263.6,1534.8,280.4,1513.4,280.4"/>
	</g>
</g>
</svg>
