<?xml version="1.0" encoding="utf-8"?>
<!-- Generator: Adobe Illustrator 21.0.0, SVG Export Plug-In . SVG Version: 6.00 Build 0)  -->
<svg version="1.1" id="Layer_1" xmlns="http://www.w3.org/2000/svg" xmlns:xlink="http://www.w3.org/1999/xlink" x="0px" y="0px"
	 viewBox="0 0 500 500" style="enable-background:new 0 0 500 500;" xml:space="preserve">
<style type="text/css">
	.st0{fill:#FFFFFF;}
</style>
<g>
	<path class="st0" d="M250,0C111.9,0,0,111.9,0,250s111.9,250,250,250s250-111.9,250-250S388.1,0,250,0z M250,458.9
		c-115.2,0-208.9-93.7-208.9-208.9S134.8,41.1,250,41.1S458.9,134.8,458.9,250S365.2,458.9,250,458.9z"/>
	<path class="st0" d="M404.5,201.2c0-0.2-0.1-0.4-0.1-0.6c-0.1-0.4-0.1-0.7-0.2-1.1c-0.1-0.2-0.1-0.4-0.2-0.6
		c-0.1-0.3-0.2-0.7-0.3-1c-0.1-0.2-0.2-0.4-0.3-0.7c-0.1-0.3-0.3-0.6-0.5-0.9c-0.1-0.2-0.3-0.4-0.4-0.6c-0.2-0.3-0.4-0.5-0.6-0.8
		c-0.1-0.2-0.3-0.4-0.5-0.6c-0.2-0.2-0.4-0.5-0.7-0.7c-0.2-0.2-0.3-0.4-0.5-0.5c-0.2-0.2-0.5-0.4-0.8-0.6c-0.2-0.2-0.4-0.3-0.6-0.5
		c-0.1,0-0.1-0.1-0.2-0.2L257.4,97.7c-4.5-3-10.3-3-14.7,0l-141.3,94.2c-0.1,0-0.1,0.1-0.2,0.2c-0.2,0.1-0.4,0.3-0.6,0.5
		c-0.3,0.2-0.5,0.4-0.8,0.6c-0.2,0.2-0.4,0.3-0.5,0.5c-0.2,0.2-0.5,0.5-0.7,0.7s-0.3,0.4-0.5,0.6c-0.2,0.3-0.4,0.5-0.6,0.8
		c-0.1,0.2-0.3,0.4-0.4,0.6c-0.2,0.3-0.3,0.6-0.5,0.9c-0.1,0.2-0.2,0.4-0.3,0.7c-0.1,0.3-0.2,0.6-0.3,1c-0.1,0.2-0.1,0.4-0.2,0.6
		c-0.1,0.4-0.2,0.7-0.2,1.1c0,0.2-0.1,0.4-0.1,0.6c-0.1,0.6-0.1,1.1-0.1,1.7v94.2c0,0.6,0,1.2,0.1,1.7c0,0.2,0.1,0.4,0.1,0.6
		c0.1,0.4,0.1,0.7,0.2,1.1c0.1,0.2,0.1,0.4,0.2,0.6c0.1,0.3,0.2,0.6,0.3,1c0.1,0.2,0.2,0.4,0.3,0.6c0.1,0.3,0.3,0.6,0.5,0.9
		c0.1,0.2,0.2,0.4,0.4,0.6c0.2,0.3,0.4,0.5,0.6,0.8c0.1,0.2,0.3,0.4,0.5,0.6s0.4,0.5,0.7,0.7c0.2,0.2,0.3,0.4,0.5,0.5
		c0.2,0.2,0.5,0.4,0.8,0.6c0.2,0.2,0.4,0.3,0.6,0.5c0.1,0,0.1,0.1,0.2,0.2l141.3,94.2c2.2,1.5,4.8,2.2,7.4,2.2
		c2.6,0,5.1-0.7,7.4-2.2l141.3-94.2c0.1,0,0.1-0.1,0.2-0.2c0.2-0.1,0.4-0.3,0.6-0.5c0.3-0.2,0.5-0.4,0.8-0.6
		c0.2-0.2,0.4-0.3,0.5-0.5c0.2-0.2,0.5-0.5,0.7-0.7s0.3-0.4,0.5-0.6c0.2-0.3,0.4-0.5,0.6-0.8c0.1-0.2,0.3-0.4,0.4-0.6
		c0.2-0.3,0.3-0.6,0.5-0.9c0.1-0.2,0.2-0.4,0.3-0.6c0.1-0.3,0.2-0.6,0.3-1c0.1-0.2,0.1-0.4,0.2-0.6c0.1-0.4,0.2-0.7,0.2-1.1
		c0-0.2,0.1-0.4,0.1-0.6c0.1-0.6,0.1-1.2,0.1-1.7V203C404.6,202.3,404.5,201.7,404.5,201.2z M263.3,133.5l104.1,69.4L320.9,234
		l-57.6-38.5V133.5z M236.7,133.5v62L179.1,234l-46.5-31.1L236.7,133.5z M122,227.8l33.2,22.2L122,272.2V227.8z M236.7,366.5
		l-104.1-69.4l46.5-31.1l57.6,38.5L236.7,366.5L236.7,366.5z M250,281.4L203,250l47-31.4l47,31.4L250,281.4z M263.3,366.5v-62
		l57.6-38.5l46.5,31.1L263.3,366.5z M378,272.2L344.8,250l33.2-22.2V272.2z"/>
</g>
</svg>
