<?xml version="1.0" encoding="utf-8"?>
<!-- Generator: Adobe Illustrator 21.0.0, SVG Export Plug-In . SVG Version: 6.00 Build 0)  -->
<svg version="1.1" id="Layer_1" xmlns:sketch="http://www.bohemiancoding.com/sketch/ns"
	 xmlns="http://www.w3.org/2000/svg" xmlns:xlink="http://www.w3.org/1999/xlink" x="0px" y="0px" viewBox="0 0 19 27"
	 style="enable-background:new 0 0 19 27;" xml:space="preserve">
<style type="text/css">
	.st0{fill:#FFFFFF;}
</style>
<title></title>
<desc></desc>
<g>
	<path class="st0" d="M14,7h5l-6-7v6C13,6.6,13.5,7,14,7z"/>
	<path class="st0" d="M12,6V0H2C0.9,0,0,0.9,0,2v23c0,1.1,0.9,2,2,2h15c1.1,0,2-0.9,2-2V8h-5C12.9,8,12,7.1,12,6z M9.5,24L5,19.5
		l0.7-0.8L9,22V11h1v11l3.2-3.3l0.8,0.8L9.5,24z"/>
</g>
</svg>
