<?xml version="1.0" encoding="utf-8"?>
<!-- Generator: Adobe Illustrator 21.0.0, SVG Export Plug-In . SVG Version: 6.00 Build 0)  -->
<svg version="1.1" id="Layer_1" xmlns="http://www.w3.org/2000/svg" xmlns:xlink="http://www.w3.org/1999/xlink" x="0px" y="0px"
	 viewBox="0 0 279.7 279.7" style="enable-background:new 0 0 279.7 279.7;" xml:space="preserve">
<style type="text/css">
	.st0{fill:#FFFFFF;}
</style>
<path class="st0" d="M139.8,0c77.2,0,139.8,62.6,139.8,139.8s-62.6,139.8-139.8,139.8C62.6,279.7,0,217.1,0,139.8S62.6,0,139.8,0z
	 M224,185.9l0-90l-53.6,36.9L224,185.9z M161.5,137.8l-19.1,12.8c-0.8,0.5-1.8,0.8-2.7,0.8c-0.9,0-1.9-0.3-2.7-0.8l-19.5-13.2
	l-55.3,54.7h155.1L161.5,137.8z M109.3,131.8l-53.5-36v89.8L109.3,131.8z M139.8,140.7l77.7-52.2h-155L139.8,140.7z"/>
</svg>
