<?xml version="1.0" encoding="utf-8"?>
<!-- Generator: Adobe Illustrator 21.0.0, SVG Export Plug-In . SVG Version: 6.00 Build 0)  -->
<svg version="1.1" id="Layer_1" xmlns="http://www.w3.org/2000/svg" xmlns:xlink="http://www.w3.org/1999/xlink" x="0px" y="0px"
	 viewBox="0 0 64 37.1" style="enable-background:new 0 0 64 37.1;" xml:space="preserve">
<style type="text/css">
	.st0{fill:#FFFFFF;}
</style>
<g transform="matrix(.25524448 0 0 .25524448 -.331818 -.331704)">
	<path class="st0" d="M252,143c-9.1,2.3-14.8,0.1-19.8-7.5c-11.4-17-23.9-33.3-36-49.8c-1.6-2.1-3.2-4.2-5.2-6.9
		c-14.3,19.3-28.6,37.7-42,56.9c-4.8,6.8-9.8,9.8-18.8,7.4L184,70.8L133.9,5.5c8.6-1.7,14.6-0.8,19.9,6.9
		c11.7,17,24.5,33.3,37.3,50.4c12.9-17.1,25.6-33.3,37.6-50.2c4.8-6.8,10-9.4,18.7-6.9c-6.6,8.7-13,17.3-19.4,25.8
		c-8.7,11.5-17.3,23.1-26.3,34.3c-3.2,4-2.7,6.6,0.2,10.4C218.5,98.1,235,120.3,252,143z"/>
	<path class="st0" d="M1.4,69.6C2.8,62.4,3.8,55,5.8,47.9c12-42.9,61.2-60.7,95-34.1c19.8,15.6,24.7,37.5,23.7,62.3H12.9
		c-1.7,44.4,30.3,71.2,71.1,57.6c14.3-4.8,22.7-16,26.9-30c2.1-7,5.7-8.1,12.3-6.1c-3.4,17.5-11,32.2-27,41.3
		c-24,13.7-58.3,9.3-76.3-9.8C9.2,117.9,4.7,103.9,2.7,88.9c-0.3-2.4-0.9-4.8-1.4-7.1C1.3,77.7,1.4,73.6,1.4,69.6z M13.1,66.6H114
		c-0.7-32.1-20.7-54.9-48-55.1C36,11.2,14.4,33.5,13.1,66.6z"/>
</g>
</svg>
