<?xml version="1.0" encoding="utf-8"?>
<!-- Generator: Adobe Illustrator 21.0.0, SVG Export Plug-In . SVG Version: 6.00 Build 0)  -->
<svg version="1.1" id="Layer_1" xmlns="http://www.w3.org/2000/svg" xmlns:xlink="http://www.w3.org/1999/xlink" x="0px" y="0px"
	 viewBox="0 0 173.2 174.9" style="enable-background:new 0 0 173.2 174.9;" xml:space="preserve">
<style type="text/css">
	.st0{fill:none;stroke:#FFFFFF;stroke-width:4;stroke-linejoin:round;stroke-miterlimit:10;}
</style>
<g>
	<g>
		<path class="st0" d="M43.2,174.9L0,0l173.2,49.9L43.2,174.9z"/>
		<path class="st0" d="M43.2,174.9L0,0l173.2,49.9L43.2,174.9z"/>
		<path class="st0" d="M86.6,25l21.6,87.5l-86.6-25L86.6,25z"/>
		<path class="st0" d="M86.6,25l21.6,87.5l-86.6-25L86.6,25z"/>
		<path class="st0" d="M65.1,99.4L54.4,55.9l43,12.3L65.1,99.4z"/>
		<path class="st0" d="M65.1,99.4L54.4,55.9l43,12.3L65.1,99.4z"/>
		<path class="st0" d="M43.7,12.5L54.4,56l-43-12.3L43.7,12.5z"/>
		<path class="st0" d="M43.7,12.5L54.4,56l-43-12.3L43.7,12.5z"/>
		<path class="st0" d="M129.7,37.3l10.7,43.5l-43-12.3L129.7,37.3z"/>
		<path class="st0" d="M129.7,37.3l10.7,43.5l-43-12.3L129.7,37.3z"/>
		<path class="st0" d="M65.1,99.4l10.7,43.5l-43-12.3L65.1,99.4z"/>
		<path class="st0" d="M65.1,99.4l10.7,43.5l-43-12.3L65.1,99.4z"/>
	</g>
</g>
</svg>
