<?xml version="1.0" encoding="utf-8"?>
<!-- Generator: Adobe Illustrator 21.0.0, SVG Export Plug-In . SVG Version: 6.00 Build 0)  -->
<svg version="1.1" id="Layer_1" xmlns="http://www.w3.org/2000/svg" xmlns:xlink="http://www.w3.org/1999/xlink" x="0px" y="0px"
	 viewBox="0 0 2500 1515" style="enable-background:new 0 0 2500 1515;" xml:space="preserve">
<style type="text/css">
	.st0{fill:#89D96D;stroke:#000000;stroke-width:5;stroke-miterlimit:10;}
	.st1{fill:#999999;stroke:#000000;stroke-width:5;stroke-miterlimit:10;}
</style>
<path class="st0" d="M1335.4,559.9c0-54.2,43.9-98.2,98.1-98.2c17.3,0,34.3,4.6,49.3,13.2c88.9-32.6,188-49.7,291-49.7
	c275.8,0,512.3,123.2,592.3,300.4c-0.7,42-60.3,61.5-84.1,35.8c-65.6-142.4-272.7-244.9-508.2-244.9c-85.6,0-167.7,13.1-242.1,38
	c3,54.1-38.4,100.5-92.6,103.5s-100.5-38.4-103.5-92.6C1335.5,563.6,1335.4,561.7,1335.4,559.9L1335.4,559.9z M2438.1,925.1
	c0-54.2-43.9-98.2-98.1-98.2c-54.2,0-98.2,43.9-98.2,98.1c0,22.1,7.4,43.6,21.1,60.9c-31.4,48.2-80.1,91.9-142.6,127
	c-96.5,54.1-219.5,83.9-346.6,83.9c-110,0-215.7-21.8-305.6-63.1c-60.8-27.9-111.3-63.1-149-103.7c-25-14.6-82.9,31.9-61.9,67.4
	c113.4,117.9,305.7,190.7,516.5,190.7c142.4,0,281.4-33.9,391.3-95.6c80.5-45.2,143-103.7,182.3-169.5
	C2398.5,1019.1,2438,976.5,2438.1,925.1z"/>
<path class="st1" d="M546.7,1109.4c-89.5-116.1-140.3-279.9-140.3-456.8c0-161,42.5-312.9,119.5-427.8
	C606.8,104.2,716.1,37.9,833.7,37.9c107.2,0,209.4,56.5,287.9,159.1c74,96.9,122.2,229,135.6,372.2c-31.8-17.6-64.5-33.3-98.1-47.1
	c-38-227.5-171.9-392.8-325.3-392.8c-86.2,0-168.6,52-231.9,146.5c-67.1,100-104,233.9-104,377c0,157.3,46.5,306.6,125.4,406.2
	c54-5.4,102,34,107.4,88c5.4,54-34,102-88,107.4s-102-34-107.4-88C533.2,1146.5,537.2,1126.7,546.7,1109.4L546.7,1109.4z
	 M1245.3,625.3C1085,532.7,906.1,496,758.1,521.8c-38.7-38-100.8-37.4-138.8,1.2c-38,38.7-37.4,100.8,1.2,138.8
	c38.7,38,100.8,37.4,138.8-1.2c13.7-14,23-31.8,26.5-51.1c124.6-18.4,275.8,15.1,413.7,94.8c168.4,97.2,287.5,248.2,310.8,388.1
	c29.1,12.1,60.8,22.5,95.1,30.6C1596.5,941.2,1457.1,747.5,1245.3,625.3L1245.3,625.3z M1269.5,1382
	c-88.4,11.2-188.7-2.8-287.3-39.7c-28.3,21.9-58.3,42.4-89.8,61.4c104.8,48.1,214.5,73.4,316.3,73.4c24.7,0,48.9-1.5,72.4-4.5
	c121.9-15.5,218.5-70.5,274.1-155.5c-31.4-7.6-62.4-17-92.8-28.2C1419.6,1338.8,1352.6,1371.5,1269.5,1382z M1171.7,1023.3
	c54.2-0.6,97.7-45,97.1-99.2c-0.6-54.2-45-97.7-99.2-97.1c-54.2,0.6-97.7,45-97.1,99.2c0.2,19.8,6.4,39,17.8,55.3
	c-18.7,44.9-46.1,89.9-81,132.7c-54,66.2-125,125.7-205.4,172.1c-112.1,64.8-232.9,99.6-344,99.5c-11.6,0-23.1-0.4-34.5-1.1
	c-113.5-7.6-199.7-52.9-242.8-127.6c-76.4-132.4-0.2-331.6,177.5-478c-4.4-32.6-7-65.4-8-98.2l-5-7
	C231.3,757,142.3,864.4,96.4,976.2c-48.7,118.4-46.1,234.4,7.1,326.6c58.8,101.8,171,163.4,315.8,173.1c13.3,0.9,26.7,1.3,40.3,1.3
	c127.1,0,264-39,390-111.8C999.7,1278.7,1115,1154.9,1171.7,1023.3L1171.7,1023.3z"/>
</svg>
