<?xml version="1.0" encoding="UTF-8" standalone="no"?>
<svg
   xmlns:dc="http://purl.org/dc/elements/1.1/"
   xmlns:cc="http://creativecommons.org/ns#"
   xmlns:rdf="http://www.w3.org/1999/02/22-rdf-syntax-ns#"
   xmlns:svg="http://www.w3.org/2000/svg"
   xmlns="http://www.w3.org/2000/svg"
   viewBox="0 0 3333.04 2498.3601"
   height="2498.3601"
   width="3333.04"
   xml:space="preserve"
   id="svg2"
   version="1.1"><metadata
     id="metadata8"><rdf:RDF><cc:Work
         rdf:about=""><dc:format>image/svg+xml</dc:format><dc:type
           rdf:resource="http://purl.org/dc/dcmitype/StillImage" /></cc:Work></rdf:RDF></metadata><defs
     id="defs6" /><g
     transform="matrix(1.3333333,0,0,-1.3333333,0,2498.36)"
     id="g10"><g
       transform="scale(0.1)"
       id="g12"><g
         transform="scale(1.53362)"
         id="g14"><path
           id="path16"
           style="fill:#d0469d;fill-opacity:1;fill-rule:nonzero;stroke:none"
           d="m 11529.2,2992.46 c -50.9,38.21 -44.5,156.04 127.3,525.36 66.9,146.45 219.7,391.56 484,624.02 31.8,-95.53 51,-187.8 47.7,-273.8 -3.1,-573.09 -410.6,-786.44 -659,-875.58 z M 9351.47,2495.8 c -70.03,-35.09 -133.73,-60.52 -162.36,-41.48 -22.3,12.78 28.63,60.52 28.63,60.52 0,0 353.41,378.9 493.47,553.98 79.62,101.85 175.07,219.68 276.99,353.41 v -38.21 c 0,-458.39 -439.35,-764.07 -636.73,-888.22 z m -2824.1,1349.94 c -162.36,-398.01 -506.22,-1419.98 -713.16,-1362.73 -178.33,47.8 -286.55,821.46 -35.06,1585.6 127.35,385.3 397.98,843.69 557.17,1022.02 257.95,286.58 538.07,382.11 608.17,264.28 82.74,-152.84 -315.21,-1260.87 -417.12,-1509.17 z M 3104.75,1518.37 C 2636.72,1005.72 1977.67,811.543 1697.49,977.1 c -302.46,175.08 -184.7,929.7 391.61,1474.09 350.23,331.12 805.52,636.8 1104.8,824.65 66.86,41.35 168.74,101.86 289.73,175.08 19.1,12.71 31.84,19.11 31.84,19.11 22.28,12.71 47.75,28.69 73.22,44.6 213.32,-776.86 9.56,-1458.25 -483.94,-1996.26 z m 10926.95,3683.7 c -569.9,-3.26 -1063.4,-140.12 -1477.3,-343.89 -152.8,302.42 -305.7,566.76 -331.1,764.07 -28.6,229.27 -63.6,369.39 -28.6,643.17 34.9,273.85 194.2,662.28 194.2,694.12 -3.2,28.65 -35.1,168.74 -363,171.92 -327.9,3.19 -611.3,-63.68 -643.2,-149.64 -31.8,-85.96 -95.5,-283.36 -136.8,-487.13 -57.3,-299.28 -655.9,-1359.52 -996.6,-1916.7 -111.5,216.55 -206.9,407.53 -226.1,560.44 -28.61,229.2 -63.63,369.32 -28.61,643.08 35.01,273.84 194.21,662.24 194.21,694.08 -3.2,28.65 -35,168.74 -362.9,171.92 -327.98,3.19 -611.3,-63.67 -643.18,-149.63 -31.82,-85.97 -66.83,-289.74 -136.86,-487.13 -66.91,-197.4 -862.87,-1967.63 -1069.83,-2429.29 -105.04,-235.58 -197.37,-423.44 -264.28,-550.79 -66.83,-127.34 -3.12,-9.58 -9.51,-22.3 -57.32,-108.24 -89.14,-168.75 -89.14,-168.75 v -3.19 c -44.6,-79.62 -92.33,-155.97 -114.7,-155.97 -15.91,0 -47.73,213.28 6.39,506.18 117.83,614.5 404.34,1572.82 401.21,1607.83 0,15.91 54.06,184.73 -184.72,270.67 -232.39,85.94 -315.14,-57.31 -334.31,-57.31 -19.11,0 -35.02,-51 -35.02,-51 0,0 257.89,1079.32 -493.47,1079.32 -471.21,0 -1120.72,-512.62 -1442.29,-980.59 -203.76,-111.44 -636.76,-347.03 -1095.24,-598.59 -175.11,-95.52 -356.59,-197.37 -528.52,-289.7 l -34.99,38.2 c -910.58,971.11 -2594.84,1658.82 -2524.79,2964.19 25.47,474.4 191.03,1725.66 3234.82,3241.14 2492.93,1241.7 4489.25,901.1 4836.21,143.3 C 9797.21,9471.59 8237.12,7459.4 5645.49,7169.66 4658.5,7058.23 4139.5,7440.29 4008.99,7583.57 c -136.9,149.64 -156,156.01 -206.95,127.35 -82.77,-44.57 -31.84,-178.3 0,-257.89 76.42,-200.58 394.8,-557.17 936.06,-735.47 474.36,-156 1633.31,-241.97 3034.23,299.28 1569.62,608.12 2795.37,2295.56 2435.57,3705.96 -366.08,1436 -2747.64,1907.2 -4998.6,1108 C 3868.87,11353.2 2417.04,10608.2 1372.74,9630.78 131.037,8471.86 -66.3616,7459.4 16.4185,7039.13 306.179,5539.51 2372.47,4562.08 3200.27,3839.35 c -41.4,-22.24 -79.6,-44.54 -114.62,-63.64 C 2671.75,3571.94 1095.74,2747.29 700.943,1874.98 255.207,887.965 770.993,177.944 1114.85,82.4184 2178.25,-213.677 3267.13,318.005 3856.14,1193.58 c 585.8,875.58 515.79,2012.17 245.16,2531.14 l -9.59,19.1 324.76,191.05 c 210.16,124.15 417.11,238.79 598.56,337.51 -101.86,-277 -175.11,-604.91 -213.28,-1082.48 -44.58,-560.37 184.66,-1286.3 487.12,-1572.81 133.72,-124.15 292.92,-127.35 391.61,-127.35 350.23,0 509.42,289.71 684.53,636.73 216.48,423.45 407.53,913.79 407.53,913.79 0,0 -238.78,-1327.65 413.92,-1327.65 238.78,0 477.56,308.82 585.81,467.98 v -3.19 c 0,0 6.39,9.58 19.1,31.88 13.37,19.76 26.08,39.91 38.21,60.45 v 6.39 c 95.53,165.55 308.81,544.4 627.21,1171.61 410.66,808.74 805.55,1821.18 805.55,1821.18 0,0 38.21,-248.37 155.97,-655.9 70.03,-241.98 222.87,-506.19 340.63,-764.08 -95.46,-133.73 -152.78,-210.15 -152.78,-210.15 l 3.13,-3.2 c -76.35,-101.91 -162.36,-210.15 -251.43,-318.39 -324.79,-388.43 -713.21,-831.05 -764.14,-958.39 -60.51,-149.58 -47.79,-261.02 70.03,-350.22 85.94,-63.64 238.78,-76.35 401.15,-63.64 292.96,19.1 496.73,92.33 598.58,136.93 159.16,57.32 340.72,143.26 515.82,270.6 318.3,235.59 512.5,569.9 493.5,1015.64 -9.6,245.11 -89.2,487.08 -187.9,716.34 28.7,41.41 57.3,82.82 86,127.35 503,735.52 891.5,1544.18 891.5,1544.18 0,0 38.2,-248.36 155.9,-655.89 60.5,-206.96 181.6,-433.03 289.8,-655.9 -471.2,-385.23 -767.3,-830.97 -869.2,-1123.88 -187.8,-541.26 -41.4,-786.44 235.6,-843.75 124.2,-25.43 302.5,31.88 436.2,89.14 165.5,54.18 366.1,146.51 550.8,283.38 318.4,235.58 624,563.56 608.1,1006.11 -9.6,203.77 -63.7,404.34 -136.9,595.39 401.2,165.56 920.1,261.08 1579.2,181.47 1416.8,-165.56 1697,-1050.65 1642.9,-1419.98 -54.1,-369.38 -350.2,-573.15 -448.9,-636.79 -98.8,-60.51 -130.6,-82.81 -121.1,-127.35 12.8,-66.9 57.4,-63.7 143.3,-50.99 117.8,19.11 745,302.49 770.5,983.75 38.2,875.71 -792.7,1830.9 -2266.9,1821.38 v 0" /></g></g></g></svg>