<?xml version="1.0" encoding="utf-8"?>
<!-- Generator: Adobe Illustrator 21.0.0, SVG Export Plug-In . SVG Version: 6.00 Build 0)  -->
<svg version="1.1" id="Layer_2" xmlns="http://www.w3.org/2000/svg" xmlns:xlink="http://www.w3.org/1999/xlink" x="0px" y="0px"
	 viewBox="0 0 1013.8 931.9" style="enable-background:new 0 0 1013.8 931.9;" xml:space="preserve">
<style type="text/css">
	.st0{fill:#353535;}
	.st1{fill:#4D4D4D;}
	.st2{fill:#141414;}
	.st3{fill:#212121;}
	.st4{stroke:#F2F2F2;stroke-miterlimit:10;}
	.st5{fill:#2D2D2D;}
	.st6{fill:url(#SVGID_1_);}
	.st7{fill:#333333;}
	.st8{fill:#1A1A1A;}
	.st9{fill:url(#SVGID_2_);}
</style>
<polygon class="st0" points="260.2,325.4 136.2,244.3 191.9,118.9 259.2,153.8 270.5,165.6 328.1,198.7 304.2,263.2 "/>
<path class="st1" d="M328.1,198.7l-23.9,64.5l-44,62.2l18.1,75.3l-13.7,23.4l16.5,81.8l47,55l70.7,179l108.1,65v-654L328.1,198.7z
	 M389,428l-21.1-6.7l-20.6-17.2l-27.8-23.2l20.9-13.6l62.1,13.6l24.4,59L389,428z"/>
<path class="st1" d="M753.6,325.4l-44.1-62.2l-23.8-64.5l-178.8-47.8v654l108.1-65l70.7-179l47-55l16.5-81.8l-13.7-23.4L753.6,325.4
	z M645.9,421.3l-21.2,6.7l-37.8,11.9l24.3-59l62.1-13.6l21,13.6L645.9,421.3z"/>
<polygon class="st2" points="260.2,325.4 223.1,190.9 270.5,165.6 328.1,198.7 304.2,263.2 "/>
<polygon class="st3" points="328.1,198.7 432.9,308.5 506.9,150.9 "/>
<polygon class="st0" points="426.9,439.9 432.9,560.9 424.9,577.9 385.8,604.3 "/>
<polygon class="st0" points="281.1,505.9 319.5,380.9 328.1,560.9 "/>
<polygon class="st3" points="426.9,439.9 506.9,560.9 432.9,560.9 "/>
<polygon class="st0" points="372.3,464.5 398.8,739.9 328.1,560.9 "/>
<polygon class="st2" points="328.1,198.7 414.7,410.4 432.9,308.5 "/>
<path class="st4" d="M259.2,153.8"/>
<polygon class="st3" points="432.9,308.5 506.9,426 426.9,439.9 414.7,410.4 "/>
<polygon class="st3" points="136.2,244.3 198.5,203 191.9,118.9 "/>
<polygon class="st5" points="424.9,577.9 449.3,601.8 474,607.3 506.9,657.9 424.9,642.7 385.8,604.3 "/>
<polygon class="st2" points="198.5,203 136.2,244.3 260.2,325.4 "/>
<polygon class="st3" points="319.5,380.9 347.3,404.1 328.1,560.9 "/>
<polygon class="st3" points="389,428 372.3,464.5 385.8,604.3 426.9,439.9 "/>
<polyline class="st3" points="260.2,325.4 319.5,380.9 281.1,505.9 264.6,424.1 278.3,400.7 260.2,325.4 "/>
<linearGradient id="SVGID_1_" gradientUnits="userSpaceOnUse" x1="260.2" y1="1412.6" x2="260.2" y2="1412.6" gradientTransform="matrix(1 0 0 -1 0 1738)">
	<stop  offset="0" style="stop-color:#8C8C8C"/>
	<stop  offset="0.3639" style="stop-color:#989A9D"/>
	<stop  offset="1" style="stop-color:#000000"/>
</linearGradient>
<path class="st6" d="M260.2,325.4"/>
<polygon class="st3" points="259.2,153.8 191.9,118.9 223.1,190.9 270.5,165.6 "/>
<polygon class="st2" points="347.3,404.1 367.9,421.3 389,428 328.1,560.9 "/>
<polygon class="st7" points="328.1,198.7 304.2,263.2 260.2,325.4 319.5,380.9 340.4,367.3 402.5,380.9 "/>
<polygon class="st0" points="753.6,325.4 877.5,244.3 821.9,118.9 754.6,153.8 743.2,165.6 685.7,198.7 709.5,263.2 "/>
<polygon class="st2" points="753.6,325.4 790.7,190.9 743.2,165.6 685.7,198.7 709.5,263.2 "/>
<polygon points="580.9,560.9 506.9,582.9 432.9,560.9 424.9,577.9 449.3,601.8 474,607.3 506.9,657.9 539.8,607.3 564.4,601.8 
	588.9,577.9 "/>
<polygon class="st3" points="685.7,198.7 580.9,308.5 506.9,150.9 "/>
<polygon class="st0" points="586.9,439.9 580.9,560.9 588.9,577.9 628,604.3 "/>
<polygon class="st0" points="506.9,690.4 398.8,739.9 506.9,804.9 615,739.9 "/>
<polygon class="st0" points="506.9,426 426.9,439.9 506.9,560.9 586.9,439.9 "/>
<polygon class="st0" points="732.7,505.9 694.3,380.9 685.7,560.9 "/>
<polygon class="st3" points="586.9,439.9 506.9,560.9 580.9,560.9 "/>
<polygon class="st0" points="641.5,464.5 615,739.9 685.7,560.9 "/>
<polygon class="st2" points="685.7,198.7 599.1,410.4 580.9,308.5 "/>
<path class="st8" d="M966.3,461.9"/>
<path class="st4" d="M754.6,153.8"/>
<polygon class="st3" points="580.9,308.5 506.9,426 586.9,439.9 599.1,410.4 "/>
<polygon class="st3" points="877.5,244.3 815.3,203 821.9,118.9 "/>
<polygon class="st7" points="506.9,560.9 432.9,560.9 506.9,582.9 580.9,560.9 "/>
<polygon class="st3" points="588.9,642.7 506.9,657.9 424.9,642.7 385.8,604.3 398.8,739.9 506.9,690.4 615,739.9 628,604.3 "/>
<polygon class="st5" points="588.9,577.9 564.4,601.8 539.8,607.3 506.9,657.9 588.9,642.7 628,604.3 "/>
<polygon class="st2" points="506.9,150.9 432.9,308.5 506.9,426 580.9,308.5 "/>
<polygon class="st2" points="815.3,203 877.5,244.3 753.6,325.4 "/>
<polygon class="st3" points="694.3,380.9 666.5,404.1 685.7,560.9 "/>
<polygon class="st3" points="624.7,428 641.5,464.5 628,604.3 586.9,439.9 "/>
<polyline class="st3" points="753.6,325.4 694.3,380.9 732.7,505.9 749.2,424.1 735.5,400.7 753.6,325.4 "/>
<linearGradient id="SVGID_2_" gradientUnits="userSpaceOnUse" x1="1237.2814" y1="1412.6" x2="1237.2814" y2="1412.6" gradientTransform="matrix(-1 0 0 -1 1990.8813 1738)">
	<stop  offset="0" style="stop-color:#8C8C8C"/>
	<stop  offset="0.3639" style="stop-color:#989A9D"/>
	<stop  offset="1" style="stop-color:#000000"/>
</linearGradient>
<path class="st9" d="M753.6,325.4"/>
<polygon class="st3" points="754.6,153.8 821.9,118.9 790.7,190.9 743.2,165.6 "/>
<polygon class="st2" points="666.5,404.1 645.9,421.3 624.7,428 685.7,560.9 "/>
<g>
	<polygon points="441.2,765.4 506.9,891 572.5,765.4 506.9,804.9 	"/>
	<path d="M911.8,351.7l-8-26.6l-131.9,0.3l172-0.4l32.6-68.3l-33.6,1.3l-18.1-9.4l89-105.3l-109.1,19.2l61.6-120.6L839.9,68
		l40.9-8.5l-58.9-17.6l-48.7,10.2L848.1,0L735.6,11.6l-72.2,44.5l37.5-54.2L600.3,26.7l-22.1,29.4l-71.3,32l-71.4-32l-22.1-29.4
		L312.9,1.9l37.5,54.2l-72.2-44.5L165.7,0l74.9,52.1l-48.7-10.2L133,59.5l40.8,8.5L47.5,41.9L109,162.4L0,143.3l88.9,105.3l-18,9.4
		l-33.7-1.3L69.9,325l172,0.4L110,325.1l-8.1,26.6L84,355.1l-60.1,12.7l78,22.8V516l43.6-29.7l-2,33.9l-7.3,228.2l74.3-124.8
		l8,167.3l25.9-58.2l51.2,131.2l12.4-67.4l-2.3-5.6l30.6,73l25.9-20l36.6,70l3.7-60L389,837.2l76.9,94.7l-17.4-94.7l20.5-18.6
		l-27.8-53.2l-25.1-15.1l-17.3-10.4l-36.7-93l-28-70.8l-6-15.2l-47-55l-16.5-81.8l13.7-23.4l-18.1-75.3l44-62.2l23.9-64.5l87.8-23.5
		l91-24.3l90.9,24.3l87.9,23.5l23.8,64.5l44.1,62.2l-18.1,75.3l13.7,23.4l-16.5,81.8l-47,55l-6,15.2l-28,70.8l-36.7,93l-17.4,10.4
		l-25.1,15.1l-27.7,53.2l20.4,18.6l-17.3,94.7l76.8-94.7l-13.5,16.7l3.8,60l36.6-70l25.9,20l28.2-67.3l12.4,67.3l51.3-131.1
		l25.9,58.1l7.9-167.3l74.3,124.8l-7.3-228.2l-2-33.9l43.6,29.7V390.7l78.1-22.9l-60.1-12.7L911.8,351.7z M190.9,279l-54.7-34.7
		l31.7-71.5l24-53.9l67.3,34.9l11.3,11.8l13.5,39.2L190.9,279z M729.7,204.7l13.5-39.1l11.4-11.8l67.3-34.9l23.9,53.9l31.7,71.5
		L822.9,279L729.7,204.7z"/>
</g>
<polygon class="st7" points="685.7,198.7 709.5,263.2 753.6,325.4 694.3,380.9 673.3,367.3 611.2,380.9 "/>
</svg>
