<?xml version="1.0" encoding="utf-8"?>
<!-- Generator: Adobe Illustrator 21.0.0, SVG Export Plug-In . SVG Version: 6.00 Build 0)  -->
<svg version="1.1" id="Layer_2" xmlns="http://www.w3.org/2000/svg" xmlns:xlink="http://www.w3.org/1999/xlink" x="0px" y="0px"
	 viewBox="0 0 1013.8 931.9" style="enable-background:new 0 0 1013.8 931.9;" xml:space="preserve">
<style type="text/css">
	.st0{fill:url(#SVGID_1_);}
</style>
<linearGradient id="SVGID_1_" gradientUnits="userSpaceOnUse" x1="122.75" y1="-33.35" x2="891" y2="734.9">
	<stop  offset="0" style="stop-color:#FFFFFF"/>
	<stop  offset="1" style="stop-color:#838383"/>
</linearGradient>
<path class="st0" d="M911.8,351.7l-8-26.6l-131.9,0.3l172-0.4l32.6-68.3l-33.6,1.3l-18.1-9.4l89-105.3l-109.1,19.2l61.6-120.6
	L839.9,68l40.9-8.5l-58.9-17.6l-48.7,10.2L848.1,0L735.6,11.6l-72.2,44.5l37.5-54.2L600.3,26.7l-22.1,29.4l-71.3,32l-71.4-32
	l-22.1-29.4L312.9,1.9l37.5,54.2l-72.2-44.5L165.7,0l74.9,52.1l-48.7-10.2L133,59.5l40.8,8.5L47.5,41.9L109,162.4L0,143.3
	l88.9,105.3l-18,9.4l-33.7-1.3L69.9,325l172,0.4L110,325.1l-8.1,26.6L84,355.1l-60.1,12.7l78,22.8V516l43.6-29.7l-2,33.9l-7.3,228.2
	l74.3-124.8l8,167.3l25.9-58.2l51.2,131.2l12.4-67.4l-2.3-5.6l30.6,73l25.9-20l36.6,70l3.7-60L389,837.2l76.9,94.7l-17.4-94.7
	l20.5-18.6l-27.8-53.2l-16.9-10.2l82.6,49.7l-65.7-39.5L506.9,891l65.6-125.5l0,0l-27.7,53.1l20.4,18.6l-17.3,94.7l76.8-94.7
	l-13.5,16.7l3.8,60l36.6-70l25.9,20l28.2-67.3l12.4,67.3l51.3-131.1l25.9,58.1l7.9-167.3l74.3,124.8l-7.3-228.2l-2-33.9l43.6,29.7
	V390.7l78.1-22.9l-60.1-12.7L911.8,351.7z M845.8,172.8l31.7,71.5l-55.6-125.4L845.8,172.8z M136.2,244.3l31.7-71.5l24-53.9
	L136.2,244.3z M334.1,576.1l-6-15.2l8.8,22.2L334.1,576.1z M679.7,576.1l-2.8,7l8.8-22.2L679.7,576.1z M506.9,150.9l-178.8,47.8
	l87.8-23.5L506.9,150.9l90.9,24.3l87.9,23.5L506.9,150.9z"/>
</svg>
