<?xml version="1.0" encoding="utf-8"?>
<!-- Generator: Adobe Illustrator 21.0.0, SVG Export Plug-In . SVG Version: 6.00 Build 0)  -->
<svg version="1.1" id="Layer_1" xmlns="http://www.w3.org/2000/svg" xmlns:xlink="http://www.w3.org/1999/xlink" x="0px" y="0px"
	 viewBox="0 0 300 300" style="enable-background:new 0 0 300 300;" xml:space="preserve">
<style type="text/css">
	.st0{fill:#FFFFFF;}
</style>
<title>phone smartphone rotate iphone device</title>
<path class="st0" d="M135.9,9.4H32.8C19.9,9.4,9.4,19.9,9.4,32.8v234.4c0,12.9,10.5,23.4,23.4,23.4h103.1
	c12.9,0,23.4-10.5,23.4-23.4V32.8C159.4,19.9,148.9,9.4,135.9,9.4z M150,267.2c0,7.8-6.3,14.1-14.1,14.1H32.8
	c-7.8,0-14.1-6.3-14.1-14.1V32.8c0-7.8,6.3-14.1,14.1-14.1h14.1v4.7c0,2.6,2.1,4.7,4.7,4.7h65.6c2.6,0,4.7-2.1,4.7-4.7v-4.7h14.1
	c7.8,0,14.1,6.3,14.1,14.1V267.2z"/>
<path class="st0" d="M267.2,140.6h-89.1c-2.6,0-4.7,2.1-4.7,4.7s2.1,4.7,4.7,4.7h89.1c7.8,0,14.1,6.3,14.1,14.1v14.1h-4.7
	c-2.6,0-4.7,2.1-4.7,4.7v65.6c0,2.6,2.1,4.7,4.7,4.7h4.7v14.1c0,7.8-6.3,14.1-14.1,14.1h-98.4c-2.6,0-4.7,2.1-4.7,4.7
	s2.1,4.7,4.7,4.7h98.4c12.9,0,23.4-10.5,23.4-23.4V164.1C290.6,151.1,280.1,140.6,267.2,140.6z"/>
<path class="st0" d="M188.4,63.8c0.9,1.2,2.3,1.9,3.8,1.9c1,0,2-0.3,2.8-0.9c2.1-1.6,2.5-4.5,0.9-6.6l-7.4-9.9
	c33.6,5.7,61,30.3,70.3,63.1l-12.8-7.5c-2.1-1.5-5-1.1-6.5,1c-1.5,2.1-1.1,5,1,6.5c0.3,0.2,0.5,0.3,0.8,0.5l20.2,11.9
	c0.7,0.4,1.5,0.7,2.3,0.7h1.2c1.2-0.3,2.2-1.1,2.8-2.2l11.9-20.2c1.3-2.2,0.6-5.1-1.6-6.5c-2.3-1.3-5.1-0.5-6.5,1.7l-4.8,8.2
	c-11.2-34.7-40.8-60.2-76.8-66.3l9.4-7.1c2.1-1.6,2.5-4.5,0.9-6.6c-1.6-2.1-4.5-2.5-6.6-0.9l-18.8,14.1c-2.1,1.6-2.5,4.5-0.9,6.6
	L188.4,63.8z"/>
</svg>
