<?xml version="1.0" encoding="utf-8"?>
<!-- Generator: Adobe Illustrator 21.0.0, SVG Export Plug-In . SVG Version: 6.00 Build 0)  -->
<svg version="1.1" id="Layer_1" xmlns="http://www.w3.org/2000/svg" xmlns:xlink="http://www.w3.org/1999/xlink" x="0px" y="0px"
	 viewBox="0 0 210.5 210.5" style="enable-background:new 0 0 210.5 210.5;" xml:space="preserve">
<style type="text/css">
	.st0{fill:#7CB2E8;}
</style>
<g>
	<g>
		<path class="st0" d="M184.8,206.5L4,25.7c-5.3-5.3-5.3-13.9,0-19.2L6.5,4c5.3-5.3,13.9-5.3,19.2,0l180.8,180.8
			c5.3,5.3,5.3,13.9,0,19.2l-2.6,2.6C198.7,211.8,190.1,211.8,184.8,206.5z"/>
	</g>
	<g>
		<path class="st0" d="M6.5,206.5L4,204c-5.3-5.3-5.3-13.9,0-19.2L184.8,4c5.3-5.3,13.9-5.3,19.2,0l2.6,2.6c5.3,5.3,5.3,13.9,0,19.2
			L25.7,206.5C20.4,211.8,11.8,211.8,6.5,206.5z"/>
	</g>
</g>
</svg>
