<?xml version="1.0" encoding="utf-8"?>
<!-- Generator: Adobe Illustrator 21.0.0, SVG Export Plug-In . SVG Version: 6.00 Build 0)  -->
<svg version="1.1" id="Layer_1" xmlns="http://www.w3.org/2000/svg" xmlns:xlink="http://www.w3.org/1999/xlink" x="0px" y="0px"
	 viewBox="0 0 1600 1982.8" style="enable-background:new 0 0 1600 1982.8;" xml:space="preserve">
<style type="text/css">
	.st0{fill:#6762A6;}
	.st1{fill:#FFFFFF;}
</style>
<path class="st0" d="M1410.2,1982.8H189.1C84.7,1982.8,0,1898.2,0,1793.7V189.1C0,84.7,84.7,0,189.1,0h1221.1
	c104.4,0,189.1,84.7,189.1,189.1v1604.6C1599.3,1898.2,1514.6,1982.8,1410.2,1982.8L1410.2,1982.8z"/>
<path class="st1" d="M1002.3,1710V922.6c0,0,51.2-188.4-630.9,77.1c-1.3,3.4-1.3-728.2-1.3-728.2l222.9-1.4v468.7
	c0,0,624-245.8,624,186.4V1710H1002.3L1002.3,1710z M1129.3,553.8H892.8c85.1-104,162.1-282.3,162.1-282.3h244.4
	C1299.4,271.5,1257.6,387.7,1129.3,553.8L1129.3,553.8z M374.2,1708.6v-448.4l224.2,224.2L374.2,1708.6L374.2,1708.6z"/>
</svg>
