<?xml version="1.0" encoding="utf-8"?>
<!-- Generator: Adobe Illustrator 21.0.0, SVG Export Plug-In . SVG Version: 6.00 Build 0)  -->
<svg version="1.1" id="Layer_1" xmlns="http://www.w3.org/2000/svg" xmlns:xlink="http://www.w3.org/1999/xlink" x="0px" y="0px"
	 viewBox="0 0 1259.4 1380.5" style="enable-background:new 0 0 1259.4 1380.5;" xml:space="preserve">
<style type="text/css">
	.st0{fill:url(#SVGID_1_);}
	.st1{fill:url(#SVGID_2_);}
	.st2{fill:url(#SVGID_3_);}
	.st3{fill:#231F1F;}
</style>
<g transform="matrix(.569 0 0 .569 199.451 -82.735)">
	
		<linearGradient id="SVGID_1_" gradientUnits="userSpaceOnUse" x1="-21379.4844" y1="-12180.1768" x2="-20538.7832" y2="-12676.9346" gradientTransform="matrix(0.1187 0 0 0.1187 2553.0908 3774.7593)">
		<stop  offset="0" style="stop-color:#909CA9"/>
		<stop  offset="1" style="stop-color:#EDEDEE"/>
	</linearGradient>
	<path class="st0" d="M1046.9,1276.4l-485.2,158.4l-422.1,186.3l-118.1,31.2c-30.1,28.6-61.6,57.6-95.7,86.9
		c-37.4,32.3-72.2,61.6-99,82.9c-29.7,23.5-73.7,67.5-96.1,95.3c-33.4,41.8-59.8,86.2-71.1,120.3c-20.2,61.6-10.3,123.9,28.6,181.5
		c49.9,73.3,149.3,148.1,265.1,199.1c59,26,158.4,59.4,233.2,78.1c124.3,31.5,364.9,65.6,497.3,70.8c26.8,1.1,62.7,1.1,64.2,0
		c2.9-1.8,23.5-41.1,47.3-89.8c81.4-166.1,140.1-322,172-455.1c19.1-80.7,34.1-188.1,44-315.4c2.6-35.6,3.7-154.8,1.5-195.1
		c-3.3-66-9.2-119.5-18.3-172c-1.5-7.7-1.8-14.7-1.1-15c1.5-1.1,5.9-2.6,65.6-19.8L1046.9,1276.4L1046.9,1276.4L1046.9,1276.4
		L1046.9,1276.4z M936.2,1341.3c4.4,0,16.1,112.6,19.1,183.7c0.7,15,0.4,24.9-0.4,24.9c-2.9,0-62-34.8-104.1-61.2
		c-36.7-23.1-106.3-69.3-117.3-78.1c-3.7-2.6-3.3-2.9,26.8-13.2C811.1,1380.2,932.2,1341.3,936.2,1341.3z M689,1422.7
		c3.3,0,11.7,4.8,31.9,17.2c75.5,47.3,178.2,104.5,222.2,123.6c13.6,5.9,15,3.7-16.1,24.9c-66.7,45.5-150,90.2-251.9,135.3
		c-18,8.1-33,14.3-33.4,14.3c-0.7,0,1.5-9.2,4.4-20.2c24.6-91.3,38.5-183.7,39.2-257.8c0.4-36.7,0.4-36.7,3.7-37.8
		C688.3,1422.7,688.7,1422.7,689,1422.7L689,1422.7z M638.1,1442.1c2.2,2.2,0.7,84.3-2.2,106.7c-6.6,53.5-16.9,103.4-33.7,159.5
		c-4,13.6-7.7,24.9-8.4,25.7c-1.5,1.8-51.7-47.3-68.2-66.4c-28.6-33-51-66-67.5-98.3c-8.4-16.5-21.6-48.8-20.5-49.9
		C443.3,1515.5,636.6,1440.7,638.1,1442.1L638.1,1442.1z M398.2,1536.4c0.4,0,0.7,0,1.1,0.4c0.7,0.7,3.3,6.6,5.5,13.2
		c11.7,31.9,38.1,78.8,60.9,108.9c24.9,33,57.6,68.2,84.7,91.3c8.8,7.3,16.9,14.3,18,15.4c2.2,2.2,2.9,1.8-56.8,24.6
		c-69.3,26.4-144.8,52.8-231.4,80.7c-20.7,6.7-41.3,13.4-62,20.2c-3.3,1.1-2.2-0.7,7.3-15.8c42.9-67.1,108.2-198.8,144.9-291.9
		c6.2-16.1,12.5-32.3,13.6-35.9c1.5-5.1,3.3-7,8.1-9.5C394.6,1537.1,397.1,1536.4,398.2,1536.4L398.2,1536.4z M324.9,1566.8
		c1.1,0.7-17.6,40-35.9,75.9c-35.6,69.3-74.4,137.5-126.5,220.4c-8.8,14.3-17.2,27.5-18.3,29c-1.8,2.6-2.6,1.8-8.4-9.5
		c-12.5-24.6-22.7-56.1-28.2-85.1c-5.5-28.6-4.4-78.5,1.8-109.3c4.8-22.7,4.4-22.4,15.4-27.9
		C171.6,1636.5,323.4,1565.3,324.9,1566.8L324.9,1566.8z M957.5,1592.5v15.4c0,81.8-8.8,194-21.6,275.8c-2.2,14.3-4,26-4.4,26.4
		c0,0-10.6-2.9-23.1-6.6c-55-17.2-114.8-42.5-168.7-72.2c-35.6-19.4-87.3-51.3-85.8-52.8c0.4-0.4,15.8-8.4,33.7-18
		c71.9-37.4,140.8-77.7,200.6-117.7c22.4-15,56.1-39.2,63.4-45.8L957.5,1592.5L957.5,1592.5z M48,1701c1.5,0,1.1,2.9-1.1,16.1
		c-1.5,9.5-3.3,27.1-4,39.2c-2.9,53.5,5.9,93.2,32.3,147.4c7.3,15,13.2,27.5,12.8,27.9c-2.6,2.2-245.3,73.3-321.6,94.2
		c-22.7,6.2-42.5,11.7-44,12.1c-2.6,0.7-2.9,0.4-1.8-5.9c8.4-53.9,49.5-124.3,106.7-183.7c38.1-39.6,68.6-62.7,120.7-92.4
		c37.4-21.3,95-53.2,99.4-54.6C47.3,1701,47.6,1701,48,1701L48,1701z M620.1,1803.3c0.4-0.4,9.2,4.4,19.8,10.6
		c78.5,45.5,187.8,87.6,280.9,109.3l8.4,1.8l-11.7,6.6c-48.8,27.1-209,93.9-372.9,155.1c-23.8,8.8-47.3,17.6-51.7,19.4
		c-4.4,1.8-8.4,2.9-8.4,2.6c0-0.4,6.6-13.2,15-29c45.8-85.8,92-190.3,115.5-262.9C617.9,1809.9,619.7,1803.7,620.1,1803.3
		L620.1,1803.3z M561.8,1822.4c0.4,0.4-2.6,8.1-6.2,16.9c-31.9,77.4-73.7,161.7-127.3,256.3c-13.6,24.2-24.9,43.6-25.3,43.6
		c-0.4,0-11.4-6.6-24.6-14.7c-77.7-47.7-146.7-106.3-191.8-163.2l-6.6-8.1l33.4-9.2c119.6-32.6,221.1-67.8,322-111.1
		C549.7,1827.2,561.4,1822.4,561.8,1822.4z M924.1,1948.9C924.1,1948.9,924.5,1949.3,924.1,1948.9c0.4,8.4-18.3,84-33.7,138.6
		c-12.8,45.8-23.8,81.8-44,145.2c-8.8,27.9-16.5,51-16.9,51c-0.4,0-2.6-0.4-4.8-1.1c-108.9-19.8-206.5-47.3-298.1-84
		c-25.7-10.3-62.3-26.8-64.5-28.6c-0.7-0.7,21.3-11,49.1-23.1c166.9-73,339.9-155.9,399.3-191.4
		C917.5,1951.1,923,1948.9,924.1,1948.9L924.1,1948.9z M87.6,1977.5c0.7,0.7-45.8,67.8-111.1,159.2c-22.7,31.9-49.1,69.3-59,83.2
		c-9.9,13.9-24.9,35.9-33.4,49.1l-15.4,23.8l-16.5-13.9c-19.4-16.1-53.2-50.6-68.2-69.7c-31.5-39.2-52.8-80.7-61.2-118.4
		c-4-17.6-4-26.4-0.4-27.5c5.5-1.5,103.4-24.6,195.1-45.8c51-11.7,110-25.7,131.3-30.8C70,1981.6,87.3,1977.5,87.6,1977.5
		L87.6,1977.5z M134.6,1995.5l11.7,13.2c52.8,59,106.7,102.7,172,140.8c11.7,6.6,20.5,12.5,19.8,12.8
		c-2.6,1.8-226.6,81.4-330.4,117.3c-58.3,20.5-106.3,37-106.7,37c-0.4,0-3.7-2.2-7.3-4.8l-6.6-4.8l10.6-15.4
		c34.5-49.9,77.7-104.5,172-218.2L134.6,1995.5L134.6,1995.5z M427.2,2204.9c0.4-0.4,16.5,5.5,36.3,12.8
		c47.7,18,85.4,29.3,136.1,42.2c62.3,15.8,152.6,31.2,205.7,35.6c8.1,0.7,12.5,1.5,11,2.6c-2.6,1.5-56.5,19.4-96.1,31.9
		c-63.1,19.8-255.6,76.6-412.6,121.7c-29,8.4-53.9,15.4-55.4,15.8c-3.7,0.7-15.8-2.6-15.8-4c0-0.7,8.8-12.1,19.4-24.6
		c52.8-63.1,105.2-133.5,148.9-200.2C416.9,2220.3,427.2,2205.3,427.2,2204.9L427.2,2204.9z M362.6,2206.7
		c0.4,0.4-25.7,42.2-71.1,114c-19.4,30.4-41.1,64.9-48.8,77c-7.3,11.7-18.3,30.1-24.6,40.3l-10.6,18.7l-5.5-1.5
		c-13.2-3.7-106-36.3-130.6-46.2c-30.4-12.1-62-26.8-85.4-39.2c-29.3-15.8-66-39.2-63.1-40c0.7-0.4,51-13.9,111.5-30.4
		c160.6-43.6,249.7-68.9,308-87.3C353.1,2208.9,362.3,2206.4,362.6,2206.7L362.6,2206.7z M819.2,2313.8h0.4
		c1.5,3.7-57.9,168.7-79.6,220.8c-4.8,11.7-6.6,14.7-9.2,14.3c-6.2-0.4-92.4-12.5-144.9-20.2c-91.3-13.9-244.6-40.7-283.1-49.5
		l-8.8-1.8l54.6-12.5c117.4-26.4,173.8-40.7,231-58.3c72.2-22,143.8-49.5,216-83.2C807.1,2318.2,816.6,2314.2,819.2,2313.8
		L819.2,2313.8z"/>
	
		<linearGradient id="SVGID_2_" gradientUnits="userSpaceOnUse" x1="-21346.3223" y1="-28634.4668" x2="-20669.8711" y2="-28634.4668" gradientTransform="matrix(0.1187 0 0 0.1187 2553.0908 3774.7593)">
		<stop  offset="0" style="stop-color:#939FAB"/>
		<stop  offset="1" style="stop-color:#DCDEE1"/>
	</linearGradient>
	<path class="st1" d="M546.7,145.4c-8.1-1.1-138.3,45.8-222.2,79.9c-113.3,46.2-201.3,90.2-255.6,128.3
		c-20.2,14.3-45.5,39.6-49.5,49.5c-1.5,3.7-2.2,8.1-2.2,12.5l49.1,46.6l117,37.4l278.3,49.9L780,604.2l3.3-27.5
		c-1.1,0-1.8-0.4-2.9-0.4l-41.8-6.6l-8.4-15c-43.3-76.3-90.9-170.9-118.8-234.7c-21.6-49.5-42.2-106.7-53.5-147.8
		C551.5,147.3,550.8,145.8,546.7,145.4L546.7,145.4L546.7,145.4L546.7,145.4z M540.9,164.1h0.4c0.4,0.4,1.8,10.6,3.3,22.7
		c6.2,51.3,17.6,100.8,35.6,154.4c13.6,40.3,13.6,38.1-2.2,33.4c-37.4-10.3-205-39.2-326.4-56.1c-19.4-2.6-35.9-5.1-35.9-5.5
		c-1.5-1.5,87.6-48,126.9-66.4C392.7,223.5,530.6,166,540.9,164.1L540.9,164.1z M187.4,328.4l14.3,4.8
		c77.7,26.4,273.2,63.8,381,72.6c12.1,1.1,22.4,2.2,22.7,2.2c0.4,0.4-9.9,5.9-23.1,12.1c-52.1,26-109.3,57.9-148.9,82.5
		c-11.7,7.3-22.4,13.2-23.8,13.2c-1.5,0-9.2-1.5-17.2-2.6l-14.7-2.2L341,475.1C276.5,412.4,225.9,364,206.4,345.6L187.4,328.4z
		 M172.7,339.8l51.7,64.5c28.2,35.6,56.8,70.4,63.1,78.1c6.2,7.7,11.4,13.9,11,14.3c-1.5,1.1-74.8-13.2-113.7-22
		c-40-9.2-56.5-13.6-81-21.3l-20.2-6.6v-5.1c0.4-24.6,31.5-61.2,84.3-98.6L172.7,339.8L172.7,339.8z M612,427.8
		c1.5,0,3.3,3.3,7.7,13.2c12.5,27.5,51.3,101.6,60.9,115.9c2.9,4.8,8.1,5.1-43.6-3.3c-124.3-20.2-164.3-26.8-164.3-27.5
		c0-0.4,3.7-2.9,8.4-5.5c38.5-21.3,77.4-48.4,111.8-77.4c8.4-7,16.1-13.6,17.6-14.7C610.9,427.8,611.7,427.4,612,427.8L612,427.8z"
		/>
	
		<radialGradient id="SVGID_3_" cx="-6437.8657" cy="-5362.0518" r="898.12" gradientTransform="matrix(-0.114 -1.712736e-02 3.463960e-02 -0.228 182.4673 -311.562)" gradientUnits="userSpaceOnUse">
		<stop  offset="0" style="stop-color:#EE352C"/>
		<stop  offset="1" style="stop-color:#A91D22"/>
	</radialGradient>
	<path class="st2" d="M22,398.1c0,0-8.1,12.8-0.4,31.9c4.8,11.7,18.7,26,34.5,40.7c0,0,163.2,159.2,183,181.9
		c90.2,104.1,129.4,206.8,133.1,348.4c2.2,90.9-15,170.9-57.9,263.7C238,1431.1,77,1614.9-171.3,1818.7l36.3-12.1
		c23.5-17.6,55.4-36.3,130.2-77.4c172.7-94.6,367.1-181.5,605.4-271c343.2-129.1,907.6-280.2,1228.9-329.3l33.4-5.1l-5.1-8.1
		c-29.3-45.5-49.5-73.7-73.7-103.8c-70.4-87.3-155.8-158.1-260.4-216.7c-143.8-80.3-329.7-143-565.1-189.6
		c-44.4-8.8-141.9-25.7-221.1-37.8c-168-26-276.5-44-396.1-64.5c-42.9-7.3-107.1-18.3-149.6-27.5c-22-4.8-64.2-14.7-97.2-26
		C68.2,439.5,30,429.3,22,398.1L22,398.1z M116.6,489.8c0.4-0.4,6.2,1.8,13.9,4.4c13.9,4.8,31.9,10.3,53.2,16.1
		c16.1,4.4,32.2,8.7,48.4,12.8c22,5.5,40.3,10.6,40.7,10.6c2.6,2.6,39.6,121,52.1,166.5c4.8,17.2,8.4,31.9,8.1,31.9
		c-0.4,0.4-4.4-5.9-9.2-14.3C280.9,642.3,213,565.7,134.6,504.1C124.3,496.7,116.6,490.1,116.6,489.8L116.6,489.8z M297,539.6
		c1.8,0,9.9,1.1,19.8,3.3c62.3,13.9,174.2,35.2,245.7,47.3c12.1,1.8,21.6,4,21.6,4.8c0,0.7-4.4,3.3-9.9,6.2
		c-12.1,6.2-60.9,35.2-77,46.2c-40.7,27.1-77.4,56.5-103.8,82.9c-10.6,10.6-19.8,19.4-19.8,19.4s-2.2-6.2-4-13.9
		c-13.2-51-40.7-126.5-65.6-179.7c-4-8.4-7.3-16.1-7.3-16.9C296.6,540,296.6,539.6,297,539.6L297,539.6z M614.6,600.2
		c2.2,0.7,5.9,13.2,13.2,40.7c13.6,53.2,19.8,112.6,17.6,168c-0.7,15.4-1.5,29.7-2.2,31.5l-1.1,3.7l-19.1-6.2
		c-39.2-12.5-103-31.2-157.7-46.6c-31.2-8.4-56.5-16.1-56.5-16.9c0-2.2,45.5-47.7,64.9-64.9C510.8,676.8,611.3,599,614.6,600.2
		L614.6,600.2z M639.9,603.8c1.1-1.1,151.8,24.9,220.4,38.1c51,9.9,125.1,25.3,129.4,27.1c2.2,0.7-5.5,5.1-30.1,16.1
		c-96.8,43.6-168.7,82.9-240.2,130.6c-18.7,12.5-34.5,22.7-34.8,22.7c-0.4,0-0.7-10.6-0.7-23.5c0-69.7-13.9-140.1-39.6-199.5
		C641.7,609.7,639.5,604.2,639.9,603.8z M1029.7,680.8c1.1,1.1-3.7,30.8-8.1,48.4c-13.2,54.6-48.8,135.7-92.4,212
		c-7.7,13.6-14.7,24.6-15.4,24.9c-0.7,0.4-10.6-5.1-22-11.7c-42.5-24.9-90.9-48.4-143.8-70.4c-14.7-6.2-27.5-11.4-27.9-12.1
		c-2.6-2.2,115.5-80.3,177.9-117.7C947.6,724.1,1028.2,679.4,1029.7,680.8L1029.7,680.8z M1057.6,685.2c3.3,0,70,18.3,104.9,28.6
		c86.2,25.7,185.2,62,249.7,91.3l26.8,12.1l-18.7,4.4c-157.7,36.3-292.6,78.1-422.8,130.9c-10.6,4.4-20.2,8.1-20.9,8.1
		c-0.7,0,2.9-8.4,7.7-18.7c39.2-83.2,64.5-170.2,70.8-244.2C1055.4,690.7,1056.5,685.2,1057.6,685.2L1057.6,685.2z M393.1,837.8
		c1.1-1.1,52.1,11,79.6,18.7c41.8,11.7,130.5,41.4,130.5,43.6c0,0.4-9.9,8.8-21.6,19.1c-48,40-94.2,82.1-149.6,135.7
		c-16.5,15.8-30.4,28.6-31.2,28.6c-0.7,0-1.1-2.2-0.7-5.1c8.4-61.6,6.6-140.8-5.1-221.1C393.8,846.9,392.7,838.1,393.1,837.8z
		 M1464.3,838.9c0.7,0.7-23.5,38.9-38.9,60.5c-22,31.5-54.3,73.3-127.3,165c-38.5,48.4-81.8,103-96.1,121.4
		c-14.7,18.3-26.8,33.7-27.1,33.7c-0.4,0-5.1-6.6-10.3-14.7c-41.1-61.6-90.2-115.5-148.5-163.9c-11-9.2-23.1-19.1-27.1-22
		c-4-2.9-7.3-5.9-7.3-6.2c0-1.1,62.3-27.9,109.6-46.9c82.9-33.7,195.8-74.1,280.5-100.1C1416.2,851.7,1463.5,838.1,1464.3,838.9
		L1464.3,838.9z M1492.5,846.2c1.5-0.4,10.3,4,20.9,10.3c89.1,51,176.4,116.6,245.3,184.1c19.4,19.1,67.5,68.9,66.7,69.3
		c0,0-16.9,1.5-36.7,2.9c-154.4,11.7-352,44.4-542,90.2c-12.8,2.9-24.2,5.5-24.9,5.5c-0.7,0,13.6-14.3,31.5-31.5
		c111.5-107.4,162.5-175.3,222.6-296.3C1484.4,862.7,1491.8,847.3,1492.5,846.2C1492.1,846.2,1492.1,846.2,1492.5,846.2
		L1492.5,846.2z M675.8,929.8c5.1,1.1,52.8,23.5,88.7,41.4c33,16.5,82.5,42.9,85.1,45.1c0.4,0.4-17.2,9.5-38.9,20.2
		c-68.9,34.5-128,67.1-189.6,104.5c-17.6,10.6-32.3,19.4-32.6,19.4c-1.5,0-1.1-1.5,8.8-19.4c33-60.1,59.4-132,74.4-202.1
		C673.3,933.5,674.7,929.8,675.8,929.8L675.8,929.8z M628.1,938.6c1.1,1.1-11.4,46.2-19.1,70.8c-15,46.6-40.3,104.9-64.9,148.9
		c-5.9,10.3-14.7,25.3-19.4,33.7l-9.2,14.7l-20.5-19.8c-23.8-23.1-43.3-37.4-68.2-50.2c-9.9-5.1-17.6-9.5-17.6-10.3
		c0-2.9,62.7-59.8,110.7-100.8C554.4,995.8,627.1,937.5,628.1,938.6L628.1,938.6z M919.7,1058.5l18,11.7
		c41.1,26.8,89.5,62.3,126.5,93.5c20.9,17.2,61.2,53.5,69.3,62.3l4.4,4.8l-29.7,8.4c-168,46.6-297.8,88-449.2,143.8
		c-16.9,6.2-31.2,11.4-32.3,11.4c-2.2,0-4,1.8,33.7-33c96.8-89.1,182.6-187.4,246.4-283.1L919.7,1058.5L919.7,1058.5z M843,1077.6
		c0.7,0.7-49.5,71.5-79.6,111.5c-35.9,47.7-99.7,127.6-143.8,179.7c-18.3,21.6-34.1,39.6-34.8,40c-1.1,0.4-1.5-5.1-1.5-13.6
		c0-44.4-11.4-91.7-31.2-132c-8.4-16.9-9.9-20.9-8.1-22.7c7-6.2,113.7-67.1,181.2-103.4C770.8,1112.8,841.9,1076.9,843,1077.6
		L843,1077.6z M379.5,1191.3c1.1,0,9.5,4.4,19.1,9.5c23.5,12.8,44.4,27.1,63.1,42.5c0.7,0.7-8.8,8.4-21.3,17.6
		c-34.8,24.9-87.6,64.9-118.4,89.5c-32.3,25.7-33.4,26.4-29.7,20.9c24.2-37,36.3-57.9,49.1-84.7c11.4-23.8,22.7-52.1,30.8-76.6
		C375.1,1199.4,378.8,1191.3,379.5,1191.3L379.5,1191.3z M503.1,1288.1c1.8-0.4,4,2.9,13.9,17.6c20.9,31.2,37,73,41.1,106.7l0.7,7.3
		l-50.2,19.4c-89.9,34.8-172.7,69.3-228.8,95c-15.8,7.3-43.3,20.5-61.2,29.3c-18,9.2-32.6,16.1-32.6,15.8c0-0.4,11.4-8.8,25.3-19.1
		c109.7-79.6,204.6-166.9,275.8-254.1c7.7-9.2,14.7-17.6,15.4-18L503.1,1288.1L503.1,1288.1z M446.3,1302
		c1.5,1.5-40.3,48.8-68.9,77.7c-70.8,72.2-140.8,128.7-227.7,183.7c-11,7-20.9,13.2-22,13.9c-2.6,1.5,0.7-2.2,38.9-43.6
		c24.2-26,42.5-48,63.4-75.2c13.9-18,16.5-20.5,36.7-34.8C320.5,1384.9,444.8,1300.6,446.3,1302z"/>
</g>
<path class="st3" d="M678.9,1380.5h4.5v-35.8h11.8v-4.5h-28.2v4.5h11.8L678.9,1380.5L678.9,1380.5z M706.1,1353.6c0-3.5,0-6.3-0.3-8
	c0.3,1.9,1,3.2,1.2,4.1l13.8,30.7h2.2l13.8-31c0.4-1,0.7-2.2,1.3-3.8c-0.3,3.2-0.3,5.8-0.3,7.7v27.1h4.8v-40.3h-5.8l-12.5,27.8
	c-0.3,1-1.3,2.9-1.9,5.1H722c-0.3-1.3-0.9-2.6-1.8-4.8l-12.5-28.2h-6.5v40.3h4.5v-26.9L706.1,1353.6L706.1,1353.6z"/>
</svg>
